{
    "asset" : {
        "generator" : "Khronos glTF Blender I/O v3.4.50",
        "version" : "2.0"
    },
    "extensionsUsed" : [
        "KHR_materials_specular",
        "KHR_materials_ior"
    ],
    "scene" : 0,
    "scenes" : [
        {
            "name" : "Scene",
            "nodes" : [
                0
            ]
        }
    ],
    "nodes" : [
        {
            "mesh" : 0,
            "name" : "mesh0",
            "scale" : [
                -0.018325358629226685,
                -0.018325358629226685,
                -0.018325358629226685
            ]
        }
    ],
    "materials" : [
        {
            "doubleSided" : true,
            "extensions" : {
                "KHR_materials_specular" : {
                    "specularColorFactor" : [
                        2.371357614441398,
                        2.371357614441398,
                        2.371357614441398
                    ]
                },
                "KHR_materials_ior" : {
                    "ior" : 1.4500000476837158
                }
            },
            "name" : "Material_5",
            "pbrMetallicRoughness" : {
                "baseColorFactor" : [
                    0.7960784435272217,
                    0.8235294222831726,
                    0.9372549057006836,
                    1
                ],
                "metallicFactor" : 0,
                "roughnessFactor" : 0.3675444722175598
            }
        }
    ],
    "meshes" : [
        {
            "name" : "mesh_id4",
            "primitives" : [
                {
                    "attributes" : {
                        "POSITION" : 0,
                        "NORMAL" : 1
                    },
                    "indices" : 2,
                    "material" : 0
                }
            ]
        }
    ],
    "accessors" : [
        {
            "bufferView" : 0,
            "componentType" : 5126,
            "count" : 2082,
            "max" : [
                81.56521606445312,
                27.940000534057617,
                88.9000015258789
            ],
            "min" : [
                -81.56521606445312,
                -19.049999237060547,
                -88.82847595214844
            ],
            "type" : "VEC3"
        },
        {
            "bufferView" : 1,
            "componentType" : 5126,
            "count" : 2082,
            "type" : "VEC3"
        },
        {
            "bufferView" : 2,
            "componentType" : 5123,
            "count" : 2082,
            "type" : "SCALAR"
        }
    ],
    "bufferViews" : [
        {
            "buffer" : 0,
            "byteLength" : 24984,
            "byteOffset" : 0,
            "target" : 34962
        },
        {
            "buffer" : 0,
            "byteLength" : 24984,
            "byteOffset" : 24984,
            "target" : 34962
        },
        {
            "buffer" : 0,
            "byteLength" : 4164,
            "byteOffset" : 49968,
            "target" : 34963
        }
    ],
    "buffers" : [
        {
            "byteLength" : 54132,
            "uri" : "data:application/octet-stream;base64,"
        }
    ]
}
