{
    "asset" : {
        "generator" : "Khronos glTF Blender I/O v3.4.50",
        "version" : "2.0"
    },
    "extensionsUsed" : [
        "KHR_materials_specular",
        "KHR_materials_ior"
    ],
    "scene" : 0,
    "scenes" : [
        {
            "name" : "Scene",
            "nodes" : [
                0
            ]
        }
    ],
    "nodes" : [
        {
            "mesh" : 0,
            "name" : "Hub cover",
            "scale" : [
                0.010385914705693722,
                0.010385914705693722,
                0.010385914705693722
            ]
        }
    ],
    "materials" : [
        {
            "doubleSided" : true,
            "extensions" : {
                "KHR_materials_specular" : {
                    "specularColorFactor" : [
                        2.371357614441398,
                        2.371357614441398,
                        2.371357614441398
                    ]
                },
                "KHR_materials_ior" : {
                    "ior" : 1.4500000476837158
                }
            },
            "name" : "Material_4.001",
            "pbrMetallicRoughness" : {
                "baseColorFactor" : [
                    0.7960784435272217,
                    0.8235294222831726,
                    0.9372549057006836,
                    1
                ],
                "metallicFactor" : 0,
                "roughnessFactor" : 0.3675444722175598
            }
        }
    ],
    "meshes" : [
        {
            "name" : "mesh_id3.001",
            "primitives" : [
                {
                    "attributes" : {
                        "POSITION" : 0,
                        "NORMAL" : 1
                    },
                    "indices" : 2,
                    "material" : 0
                }
            ]
        }
    ],
    "accessors" : [
        {
            "bufferView" : 0,
            "componentType" : 5126,
            "count" : 20442,
            "max" : [
                107.94999694824219,
                6.349999904632568,
                107.76646423339844
            ],
            "min" : [
                -107.94999694824219,
                -21.59000015258789,
                -107.76646423339844
            ],
            "type" : "VEC3"
        },
        {
            "bufferView" : 1,
            "componentType" : 5126,
            "count" : 20442,
            "type" : "VEC3"
        },
        {
            "bufferView" : 2,
            "componentType" : 5123,
            "count" : 20442,
            "type" : "SCALAR"
        }
    ],
    "bufferViews" : [
        {
            "buffer" : 0,
            "byteLength" : 245304,
            "byteOffset" : 0,
            "target" : 34962
        },
        {
            "buffer" : 0,
            "byteLength" : 245304,
            "byteOffset" : 245304,
            "target" : 34962
        },
        {
            "buffer" : 0,
            "byteLength" : 40884,
            "byteOffset" : 490608,
            "target" : 34963
        }
    ],
    "buffers" : [
        {
            "byteLength" : 531492,
            "uri" : "data:application/octet-stream;base64,"
        }
    ]
}
